<mxfile host="app.diagrams.net" modified="2023-12-25T16:45:08.542Z" agent="Mozilla/5.0 (Windows NT 10.0; Win64; x64; rv:121.0) Gecko/20100101 Firefox/121.0" etag="qvFXqcPcAUPfzPCNHkFr" version="22.1.11" type="github">
  <diagram name="Page-1" id="QCRs72QJ7RFpPiSyxYd-">
    <mxGraphModel dx="1434" dy="820" grid="1" gridSize="10" guides="1" tooltips="1" connect="1" arrows="1" fold="1" page="1" pageScale="1" pageWidth="850" pageHeight="1100" math="0" shadow="0">
      <root>
        <mxCell id="0" />
        <mxCell id="1" parent="0" />
        <mxCell id="A36Y3rL2pasFIXy3Kqzp-1" value="" style="verticalLabelPosition=bottom;html=1;verticalAlign=top;align=center;strokeColor=none;fillColor=#00BEF2;shape=mxgraph.azure.user;" parent="1" vertex="1">
          <mxGeometry x="90" y="80" width="40" height="40" as="geometry" />
        </mxCell>
        <mxCell id="A36Y3rL2pasFIXy3Kqzp-3" value="Student" style="text;html=1;strokeColor=none;fillColor=none;align=center;verticalAlign=middle;whiteSpace=wrap;rounded=0;" parent="1" vertex="1">
          <mxGeometry x="80" y="120" width="60" height="30" as="geometry" />
        </mxCell>
        <mxCell id="W4eT2PgvmVDTKqHdBjYm-3" value="&lt;div&gt;Start&lt;/div&gt;" style="strokeWidth=2;html=1;shape=mxgraph.flowchart.start_1;whiteSpace=wrap;" vertex="1" parent="1">
          <mxGeometry x="190" y="70" width="100" height="60" as="geometry" />
        </mxCell>
        <mxCell id="W4eT2PgvmVDTKqHdBjYm-4" value="Complete all YouTube playlist learning" style="verticalLabelPosition=bottom;verticalAlign=top;html=1;shape=process;whiteSpace=wrap;rounded=1;size=0.21428571428571427;arcSize=6;" vertex="1" parent="1">
          <mxGeometry x="170" y="170" width="140" height="70" as="geometry" />
        </mxCell>
        <mxCell id="W4eT2PgvmVDTKqHdBjYm-7" value="" style="dashed=0;outlineConnect=0;html=1;align=center;labelPosition=center;verticalLabelPosition=bottom;verticalAlign=top;shape=mxgraph.weblogos.youtube_2;fillColor=#FF2626;gradientColor=#B5171F" vertex="1" parent="1">
          <mxGeometry x="216.8" y="188.7" width="46.400000000000006" height="32.6" as="geometry" />
        </mxCell>
        <mxCell id="W4eT2PgvmVDTKqHdBjYm-8" value="Take a quiz" style="strokeWidth=2;html=1;shape=mxgraph.flowchart.decision;whiteSpace=wrap;" vertex="1" parent="1">
          <mxGeometry x="370" y="155" width="100" height="100" as="geometry" />
        </mxCell>
        <mxCell id="W4eT2PgvmVDTKqHdBjYm-9" style="edgeStyle=orthogonalEdgeStyle;rounded=0;orthogonalLoop=1;jettySize=auto;html=1;exitX=1;exitY=0.5;exitDx=0;exitDy=0;entryX=0;entryY=0.5;entryDx=0;entryDy=0;entryPerimeter=0;" edge="1" parent="1" source="W4eT2PgvmVDTKqHdBjYm-4" target="W4eT2PgvmVDTKqHdBjYm-8">
          <mxGeometry relative="1" as="geometry" />
        </mxCell>
      </root>
    </mxGraphModel>
  </diagram>
</mxfile>
